<?xml version="1.0" encoding="UTF-8" standalone="no"?>
<svg
   xmlns:dc="http://purl.org/dc/elements/1.1/"
   xmlns:cc="http://creativecommons.org/ns#"
   xmlns:rdf="http://www.w3.org/1999/02/22-rdf-syntax-ns#"
   xmlns:svg="http://www.w3.org/2000/svg"
   xmlns="http://www.w3.org/2000/svg"
   xmlns:sodipodi="http://sodipodi.sourceforge.net/DTD/sodipodi-0.dtd"
   xmlns:inkscape="http://www.inkscape.org/namespaces/inkscape"
   inkscape:version="1.0 (4035a4fb49, 2020-05-01)"
   height="59.845001"
   width="44.412003"
   sodipodi:docname="CheckActive.svg"
   id="svg873"
   xml:space="preserve"
   enable-background="new 0 0 64 64"
   viewBox="0 0 44.412003 59.845001"
   y="0px"
   x="0px"
   version="1.1"><metadata
     id="metadata879"><rdf:RDF><cc:Work
         rdf:about=""><dc:format>image/svg+xml</dc:format><dc:type
           rdf:resource="http://purl.org/dc/dcmitype/StillImage" /><dc:title></dc:title></cc:Work></rdf:RDF></metadata><defs
     id="defs877" /><sodipodi:namedview
     inkscape:current-layer="svg873"
     inkscape:window-maximized="0"
     inkscape:window-y="0"
     inkscape:window-x="26"
     inkscape:cy="37.923"
     inkscape:cx="22.207"
     inkscape:zoom="6.5625"
     fit-margin-bottom="0"
     fit-margin-right="0"
     fit-margin-left="0"
     fit-margin-top="0"
     showgrid="false"
     id="namedview875"
     inkscape:window-height="738"
     inkscape:window-width="1256"
     inkscape:pageshadow="2"
     inkscape:pageopacity="0"
     guidetolerance="10"
     gridtolerance="10"
     objecttolerance="10"
     borderopacity="1"
     bordercolor="#666666"
     pagecolor="#ffffff" /><path
     id="path869"
     d="m 19.759,39.518 c 10.895,0 19.759,-8.864 19.759,-19.759 C 39.518,8.864 30.654,0 19.759,0 8.864,0 0,8.864 0,19.759 0,30.654 8.864,39.518 19.759,39.518 Z M 12.853,20.884 c 0.057,3.059 0.343,6.09 0.853,8.792 -2.153,0.621 -4.162,1.572 -5.938,2.823 C 4.631,29.545 2.582,25.451 2.29,20.884 Z M 19.759,2.25 c 1.068,0 2.406,2.147 3.376,5.918 -1.099,0.188 -2.228,0.288 -3.376,0.288 -1.146,0 -2.273,-0.105 -3.374,-0.295 C 17.354,4.396 18.692,2.25 19.759,2.25 Z M 14.188,7.643 C 12.531,7.151 10.967,6.453 9.563,5.539 11.496,4.149 13.72,3.142 16.127,2.631 15.342,3.936 14.694,5.656 14.188,7.643 Z m 9.204,-5.012 c 2.403,0.509 4.624,1.514 6.554,2.9 -1.403,0.914 -2.958,1.622 -4.614,2.113 -0.508,-1.986 -1.155,-3.708 -1.94,-5.013 z m -3.633,8.075 c 1.311,0 2.6,-0.12 3.855,-0.341 0.44,2.339 0.737,5.121 0.796,8.269 h -9.301 c 0.059,-3.151 0.356,-5.935 0.797,-8.275 1.258,0.222 2.546,0.347 3.853,0.347 z m 4.651,10.178 c -0.059,3.148 -0.355,5.93 -0.796,8.27 -1.255,-0.221 -2.544,-0.341 -3.855,-0.341 -1.308,0 -2.596,0.125 -3.853,0.348 -0.441,-2.341 -0.738,-5.125 -0.797,-8.276 h 9.301 z m -4.651,16.384 c -1.067,0 -2.405,-2.145 -3.374,-5.912 1.101,-0.189 2.229,-0.294 3.374,-0.294 1.148,0 2.277,0.1 3.376,0.288 -0.97,3.771 -2.308,5.918 -3.376,5.918 z m 5.572,-5.394 c 1.656,0.491 3.211,1.198 4.614,2.113 -1.93,1.386 -4.151,2.391 -6.554,2.9 0.786,-1.304 1.433,-3.026 1.94,-5.013 z m -9.204,5.013 c -2.408,-0.51 -4.632,-1.518 -6.565,-2.908 1.405,-0.913 2.969,-1.612 4.626,-2.104 0.506,1.986 1.154,3.708 1.939,5.012 z M 31.76,32.491 c -1.778,-1.255 -3.791,-2.199 -5.945,-2.819 0.51,-2.702 0.795,-5.732 0.852,-8.789 h 10.562 c -0.292,4.563 -2.337,8.654 -5.469,11.608 z M 37.228,18.634 H 26.666 c -0.057,-3.057 -0.342,-6.086 -0.852,-8.788 2.154,-0.621 4.167,-1.563 5.945,-2.819 3.133,2.954 5.178,7.044 5.469,11.607 z M 7.768,7.019 c 1.776,1.252 3.785,2.202 5.938,2.823 -0.51,2.703 -0.796,5.734 -0.853,8.792 H 2.29 C 2.582,14.068 4.63,9.974 7.768,7.019 Z" /><path
     id="path871"
     d="m 42.815,43.12 h -4.942 c -0.881,0 -1.599,0.708 -1.599,1.58 v 0.022 c -1.163,-1.199 -2.687,-2.296 -4.271,-2.119 -0.138,0.016 -0.299,0.022 -0.481,0.022 -2.893,0 -10.596,-1.64 -12.736,-2.208 -1.293,-0.343 -2.423,0.554 -2.5,1.95 -0.087,1.603 1.192,4.043 4.639,5.552 -0.322,0.022 -0.652,0.035 -0.989,0.035 -2.155,0 -3.989,-0.509 -5.449,-1.514 L 14.37,46.359 c -3.998,-2.75 -7.156,-4.922 -9.547,-4.922 -1.085,0 -1.976,0.45 -2.577,1.303 -0.286,0.405 -0.583,1.092 -0.38,2.065 0.829,3.983 9.733,9.441 10.111,9.671 l 0.193,0.118 c 2.995,1.823 5.582,3.398 11.692,3.692 0.643,0.031 1.304,0.045 1.972,0.045 0,0 0,0 0.001,0 4.077,0 8.348,-0.509 10.438,-0.797 v 0.731 c 0,0.871 0.717,1.58 1.599,1.58 h 4.942 c 0.881,0 1.598,-0.708 1.598,-1.58 V 44.7 c 0.002,-0.871 -0.715,-1.58 -1.597,-1.58 z M 23.972,56.04 C 18.434,55.773 16.298,54.473 13.342,52.673 L 13.149,52.555 C 9.09,50.085 4.465,46.245 4.071,44.348 4.025,44.126 4.072,44.059 4.087,44.037 c 0.148,-0.21 0.33,-0.349 0.738,-0.349 1.691,0 4.888,2.198 8.271,4.525 l 0.117,0.081 c 1.844,1.268 4.106,1.911 6.725,1.91 3.41,0 6.222,-1.101 6.34,-1.148 0.48,-0.191 0.769,-0.684 0.7,-1.196 -0.069,-0.512 -0.479,-0.911 -0.993,-0.968 -4.899,-0.536 -6.592,-2.503 -7.093,-3.324 -0.222,-0.365 -0.318,-0.677 -0.349,-0.891 2.485,0.625 9.848,2.197 12.979,2.197 0.276,0 0.522,-0.012 0.732,-0.036 1.213,-0.139 3.017,1.913 4.02,3.49 v 6.934 c -2.187,0.308 -7.741,0.996 -12.302,0.778 z m 18.192,1.556 H 38.525 V 45.37 h 3.639 z" /></svg>
