<?xml version="1.0" encoding="UTF-8" standalone="no"?>
<svg
   xmlns:dc="http://purl.org/dc/elements/1.1/"
   xmlns:cc="http://creativecommons.org/ns#"
   xmlns:rdf="http://www.w3.org/1999/02/22-rdf-syntax-ns#"
   xmlns:svg="http://www.w3.org/2000/svg"
   xmlns="http://www.w3.org/2000/svg"
   xmlns:sodipodi="http://sodipodi.sourceforge.net/DTD/sodipodi-0.dtd"
   xmlns:inkscape="http://www.inkscape.org/namespaces/inkscape"
   inkscape:version="1.0 (4035a4fb49, 2020-05-01)"
   height="50.880001"
   width="51.658001"
   sodipodi:docname="CheckAll.svg"
   id="svg897"
   xml:space="preserve"
   enable-background="new 0 0 64 64"
   viewBox="0 0 51.658001 50.880001"
   y="0px"
   x="0px"
   version="1.1"><metadata
     id="metadata903"><rdf:RDF><cc:Work
         rdf:about=""><dc:format>image/svg+xml</dc:format><dc:type
           rdf:resource="http://purl.org/dc/dcmitype/StillImage" /><dc:title></dc:title></cc:Work></rdf:RDF></metadata><defs
     id="defs901" /><sodipodi:namedview
     inkscape:current-layer="svg897"
     inkscape:window-maximized="1"
     inkscape:window-y="-8"
     inkscape:window-x="-8"
     inkscape:cy="33.44"
     inkscape:cx="25.829"
     inkscape:zoom="6.85"
     fit-margin-bottom="0"
     fit-margin-right="0"
     fit-margin-left="0"
     fit-margin-top="0"
     showgrid="false"
     id="namedview899"
     inkscape:window-height="715"
     inkscape:window-width="1366"
     inkscape:pageshadow="2"
     inkscape:pageopacity="0"
     guidetolerance="10"
     gridtolerance="10"
     objecttolerance="10"
     borderopacity="1"
     bordercolor="#666666"
     pagecolor="#ffffff" /><path
     id="path893"
     d="m 28.506,46.489 c 0.392,-0.574 0.782,-1.259 1.162,-2.092 l -2.046,-0.935 c -0.984,2.154 -2.104,3.39 -3.07,3.39 -1.49,0 -3.317,-2.862 -4.594,-7.945 1.496,-0.276 3.031,-0.435 4.594,-0.435 0.406,0 0.81,0.01 1.211,0.028 l 0.103,-2.248 c -0.435,-0.02 -0.874,-0.03 -1.313,-0.03 -1.727,0 -3.424,0.179 -5.079,0.489 -0.602,-3.078 -1,-6.788 -1.062,-11.035 h 28.413 c -0.057,1.136 -0.198,2.266 -0.425,3.37 l 2.205,0.451 C 48.936,27.88 49.103,26.215 49.103,24.551 49.103,11.013 38.09,0 24.552,0 11.014,0 0,11.013 0,24.551 c 0,13.537 11.014,24.551 24.552,24.551 2.402,0 4.778,-0.346 7.06,-1.029 l -0.646,-2.156 c -0.808,0.242 -1.63,0.423 -2.46,0.572 z m -7.886,0.01 c -3.47,-0.62 -6.667,-2.039 -9.386,-4.069 1.967,-1.335 4.183,-2.347 6.549,-3.014 0.719,2.895 1.668,5.362 2.837,7.083 z M 24.552,2.251 c 1.49,0 3.317,2.865 4.594,7.951 -1.492,0.274 -3.027,0.429 -4.594,0.429 -1.563,0 -3.098,-0.158 -4.594,-0.435 1.276,-5.083 3.103,-7.945 4.594,-7.945 z M 17.783,9.687 C 15.416,9.02 13.201,8.009 11.234,6.674 13.953,4.644 17.149,3.224 20.62,2.604 19.451,4.326 18.502,6.793 17.783,9.687 Z M 28.482,2.604 C 31.957,3.225 35.157,4.647 37.878,6.68 35.91,8.02 33.69,9.027 31.32,9.694 30.602,6.795 29.652,4.327 28.482,2.604 Z m -3.93,10.276 c 1.73,0 3.428,-0.175 5.079,-0.483 0.601,3.078 0.999,6.785 1.061,11.029 h -12.28 c 0.062,-4.247 0.46,-7.956 1.062,-11.035 1.654,0.312 3.351,0.489 5.078,0.489 z M 46.824,23.426 H 32.951 c -0.062,-3.973 -0.45,-7.979 -1.146,-11.531 2.861,-0.79 5.521,-2.047 7.854,-3.729 4.161,3.839 6.864,9.238 7.165,15.26 z M 9.449,8.161 c 2.329,1.678 4.99,2.935 7.85,3.726 -0.696,3.554 -1.086,7.563 -1.147,11.54 H 2.278 C 2.579,17.402 5.284,12.001 9.449,8.161 Z M 2.278,25.676 h 13.873 c 0.062,3.977 0.451,7.986 1.147,11.54 -2.859,0.791 -5.521,2.048 -7.85,3.726 -4.164,-3.84 -6.869,-9.24 -7.17,-15.266 z" /><path
     id="path895"
     d="m 51.658,49.289 -6.792,-6.792 c 1.242,-1.584 1.99,-3.573 1.99,-5.737 0,-5.139 -4.181,-9.319 -9.319,-9.319 -5.138,0 -9.319,4.181 -9.319,9.319 0,5.138 4.181,9.319 9.319,9.319 2.165,0 4.154,-0.748 5.737,-1.99 l 6.793,6.791 z m -21.19,-12.53 c 0,-3.898 3.172,-7.069 7.069,-7.069 3.898,0 7.069,3.171 7.069,7.069 0,3.897 -3.171,7.069 -7.069,7.069 -3.897,10e-4 -7.069,-3.171 -7.069,-7.069 z" /></svg>
