<?xml version="1.0" encoding="UTF-8" standalone="no"?>
<svg
   xmlns:dc="http://purl.org/dc/elements/1.1/"
   xmlns:cc="http://creativecommons.org/ns#"
   xmlns:rdf="http://www.w3.org/1999/02/22-rdf-syntax-ns#"
   xmlns:svg="http://www.w3.org/2000/svg"
   xmlns="http://www.w3.org/2000/svg"
   xmlns:sodipodi="http://sodipodi.sourceforge.net/DTD/sodipodi-0.dtd"
   xmlns:inkscape="http://www.inkscape.org/namespaces/inkscape"
   inkscape:version="1.0 (4035a4fb49, 2020-05-01)"
   height="127.5"
   width="128"
   sodipodi:docname="CheckSelected.svg"
   id="svg18"
   version="1.1"
   y="0px"
   x="0px"
   viewBox="0 0 128 127.5"
   data-name="Layer 1">
  <metadata
     id="metadata24">
    <rdf:RDF>
      <cc:Work
         rdf:about="">
        <dc:format>image/svg+xml</dc:format>
        <dc:type
           rdf:resource="http://purl.org/dc/dcmitype/StillImage" />
        <dc:title>Miscellaneous 28 SOLID</dc:title>
      </cc:Work>
    </rdf:RDF>
  </metadata>
  <defs
     id="defs22" />
  <sodipodi:namedview
     inkscape:current-layer="svg18"
     inkscape:window-maximized="1"
     inkscape:window-y="-8"
     inkscape:window-x="-8"
     inkscape:cy="79.5"
     inkscape:cx="64"
     inkscape:zoom="3.425"
     fit-margin-bottom="0"
     fit-margin-right="0"
     fit-margin-left="0"
     fit-margin-top="0"
     showgrid="false"
     id="namedview20"
     inkscape:window-height="715"
     inkscape:window-width="1366"
     inkscape:pageshadow="2"
     inkscape:pageopacity="0"
     guidetolerance="10"
     gridtolerance="10"
     objecttolerance="10"
     borderopacity="1"
     bordercolor="#666666"
     pagecolor="#ffffff" />
  <title
     id="title2">Miscellaneous 28 SOLID</title>
  <path
     id="path4"
     d="m 29.89,108.09 a 7,7 0 0 0 6,0.43 L 58.21,99.73 A 5.05,5.05 0 0 0 61,96.98 l 5.27,-12.86 c 3.51,1.44 7.18,3 10.15,4.21 a 0.83,0.83 0 0 1 0.21,0.16 L 88,109.28 a 7.44,7.44 0 0 0 1.64,2.22 H 84 a 2,2 0 0 0 0,4 h 42 a 2,2 0 0 0 0,-4 H 99.66 a 7.27,7.27 0 0 0 1,-1.18 7.44,7.44 0 0 0 0.94,-6.52 c 0,-0.09 -10.41,-24.21 -10.41,-24.21 v 0 a 5.53,5.53 0 0 0 -1.86,-1.7 l -9,-5.52 a 1.06,1.06 0 0 1 -0.51,-0.61 1.35,1.35 0 0 1 0,-0.29 V 54.5 c 2.23,0.49 8.36,2 9.17,2 a 2,2 0 0 0 1.69,-0.93 l 10.5,-16.48 a 5.5,5.5 0 0 0 -0.83,-7 5.86,5.86 0 0 0 -8.78,0.85 l -6.87,10 -8.26,-2 A 23.44,23.44 0 0 0 56.33,29.5 8.21,8.21 0 0 0 51.72,30.92 L 30.92,44.26 A 2,2 0 0 0 30,46.39 l 4.68,20.52 a 5.8,5.8 0 0 0 5.69,4.59 5.87,5.87 0 0 0 5.79,-5.93 c 0,-0.36 -2.59,-14.05 -2.59,-14.05 L 52,45.39 a 2.0007561,2.0007561 0 1 1 2.11,3.4 L 48,53.37 v 17.77 a 8.53,8.53 0 0 0 4.15,7.25 l -3.05,9.17 a 1,1 0 0 1 -0.57,0.61 L 30.67,95.5 a 7,7 0 0 0 -4.26,7.67 7.08,7.08 0 0 0 3.48,4.92 z M 89.44,103 h -0.33 l -2.87,-5.26 a 4.5,4.5 0 0 0 3.13,1.27 4.16,4.16 0 0 0 4.25,-3.75 l 2.11,4.91 A 8.4,8.4 0 0 1 89.44,103 Z M 52,55.97 c 2,0.78 9.56,3 23.77,-0.13 v 4.1 A 65.65,65.65 0 0 1 62.17,61.5 35.36,35.36 0 0 1 52,60.2 Z m 0,12.35 v -4.18 c 2.65,0.88 10.29,2.63 23.77,-0.2 v 4.09 A 70.27,70.27 0 0 1 62.1,69.5 38.7,38.7 0 0 1 52,68.32 Z m -9.81,26.87 a 2,2 0 0 0 0.48,-0.3 l 7.38,-3 a 5,5 0 0 0 2.85,-3 l 3,-8.94 c 1.57,0.62 4,1.59 6.7,2.7 L 57.32,95.5 a 1,1 0 0 1 -0.56,0.55 l -11.88,4.68 a 2.57,2.57 0 0 0 -0.44,0.11 3.0221929,3.0221929 0 0 1 -2.25,-5.61 z m -10,4 4.16,-1.69 a 6.79,6.79 0 0 0 0.06,1.68 7,7 0 0 0 2.18,4 l -4.15,1.63 A 3.0221929,3.0221929 0 0 1 32.19,99.2 Z" />
  <path
     id="path6"
     d="m 62.65,26 a 13,13 0 1 0 -13,-13 13,13 0 0 0 13,13 z m 0,-22 a 9,9 0 1 1 -9,9 9,9 0 0 1 9,-9 z" />
  <path
     id="path8"
     d="m 67,111.5 a 2,2 0 0 0 0,4 h 7 a 2,2 0 0 0 0,-4 z" />
  <path
     id="path10"
     d="m 2,115.5 h 55 a 2,2 0 0 0 0,-4 H 2 a 2,2 0 0 0 0,4 z" />
  <path
     id="path12"
     d="M 126,123.5 H 2 a 2,2 0 0 0 0,4 h 124 a 2,2 0 0 0 0,-4 z" />
</svg>
