<svg xmlns="http://www.w3.org/2000/svg" xmlns:xlink="http://www.w3.org/1999/xlink" version="1.1" x="0px" y="0px" viewBox="0 0 64 80" enable-background="new 0 0 64 64" xml:space="preserve"><path d="M29.552,41.595c10.895,0,19.759-8.864,19.759-19.759c0-10.895-8.864-19.759-19.759-19.759S9.793,10.941,9.793,21.836  C9.793,32.731,18.657,41.595,29.552,41.595z M22.646,22.961c0.057,3.059,0.343,6.09,0.853,8.792  c-2.153,0.621-4.162,1.572-5.938,2.823c-3.137-2.954-5.186-7.048-5.478-11.615H22.646z M29.552,4.327  c1.068,0,2.406,2.147,3.376,5.918c-1.099,0.188-2.228,0.288-3.376,0.288c-1.146,0-2.273-0.105-3.374-0.295  C27.147,6.473,28.485,4.327,29.552,4.327z M23.981,9.72c-1.657-0.492-3.221-1.19-4.625-2.104c1.933-1.39,4.157-2.397,6.564-2.908  C25.135,6.013,24.487,7.733,23.981,9.72z M33.185,4.708c2.403,0.509,4.624,1.514,6.554,2.9c-1.403,0.914-2.958,1.622-4.614,2.113  C34.617,7.735,33.97,6.013,33.185,4.708z M29.552,12.783c1.311,0,2.6-0.12,3.855-0.341c0.44,2.339,0.737,5.121,0.796,8.269h-9.301  c0.059-3.151,0.356-5.935,0.797-8.275C26.957,12.658,28.245,12.783,29.552,12.783z M34.203,22.961  c-0.059,3.148-0.355,5.93-0.796,8.27c-1.255-0.221-2.544-0.341-3.855-0.341c-1.308,0-2.596,0.125-3.853,0.348  c-0.441-2.341-0.738-5.125-0.797-8.276H34.203z M29.552,39.345c-1.067,0-2.405-2.145-3.374-5.912  c1.101-0.189,2.229-0.294,3.374-0.294c1.148,0,2.277,0.1,3.376,0.288C31.958,37.198,30.62,39.345,29.552,39.345z M35.124,33.951  c1.656,0.491,3.211,1.198,4.614,2.113c-1.93,1.386-4.151,2.391-6.554,2.9C33.97,37.66,34.617,35.938,35.124,33.951z M25.92,38.964  c-2.408-0.51-4.632-1.518-6.565-2.908c1.405-0.913,2.969-1.612,4.626-2.104C24.487,35.938,25.135,37.66,25.92,38.964z   M41.553,34.568c-1.778-1.255-3.791-2.199-5.945-2.819c0.51-2.702,0.795-5.732,0.852-8.789h10.562  C46.73,27.523,44.685,31.614,41.553,34.568z M47.021,20.711H36.459c-0.057-3.057-0.342-6.086-0.852-8.788  c2.154-0.621,4.167-1.563,5.945-2.819C44.685,12.058,46.73,16.148,47.021,20.711z M17.561,9.096  c1.776,1.252,3.785,2.202,5.938,2.823c-0.51,2.703-0.796,5.734-0.853,8.792H12.083C12.375,16.145,14.423,12.051,17.561,9.096z"/><path d="M52.608,45.197h-4.942c-0.881,0-1.599,0.708-1.599,1.58v0.022c-1.163-1.199-2.687-2.296-4.271-2.119  c-0.138,0.016-0.299,0.022-0.481,0.022c-2.893,0-10.596-1.64-12.736-2.208c-1.293-0.343-2.423,0.554-2.5,1.95  c-0.087,1.603,1.192,4.043,4.639,5.552c-0.322,0.022-0.652,0.035-0.989,0.035c-2.155,0-3.989-0.509-5.449-1.514l-0.117-0.081  c-3.998-2.75-7.156-4.922-9.547-4.922c-1.085,0-1.976,0.45-2.577,1.303c-0.286,0.405-0.583,1.092-0.38,2.065  c0.829,3.983,9.733,9.441,10.111,9.671l0.193,0.118c2.995,1.823,5.582,3.398,11.692,3.692c0.643,0.031,1.304,0.045,1.972,0.045  c0,0,0,0,0.001,0c4.077,0,8.348-0.509,10.438-0.797v0.731c0,0.871,0.717,1.58,1.599,1.58h4.942c0.881,0,1.598-0.708,1.598-1.58  V46.777C54.207,45.906,53.49,45.197,52.608,45.197z M33.765,58.117c-5.538-0.267-7.674-1.567-10.63-3.367l-0.193-0.118  c-4.059-2.47-8.684-6.31-9.078-8.207c-0.046-0.222,0.001-0.289,0.016-0.311c0.148-0.21,0.33-0.349,0.738-0.349  c1.691,0,4.888,2.198,8.271,4.525l0.117,0.081c1.844,1.268,4.106,1.911,6.725,1.91c3.41,0,6.222-1.101,6.34-1.148  c0.48-0.191,0.769-0.684,0.7-1.196s-0.479-0.911-0.993-0.968c-4.899-0.536-6.592-2.503-7.093-3.324  c-0.222-0.365-0.318-0.677-0.349-0.891c2.485,0.625,9.848,2.197,12.979,2.197c0.276,0,0.522-0.012,0.732-0.036  c1.213-0.139,3.017,1.913,4.02,3.49v6.934C43.88,57.647,38.326,58.335,33.765,58.117z M51.957,59.673h-3.639V47.447h3.639V59.673z"/></svg>