<?xml version="1.0" encoding="UTF-8" standalone="no"?>
<svg
   xmlns:dc="http://purl.org/dc/elements/1.1/"
   xmlns:cc="http://creativecommons.org/ns#"
   xmlns:rdf="http://www.w3.org/1999/02/22-rdf-syntax-ns#"
   xmlns:svg="http://www.w3.org/2000/svg"
   xmlns="http://www.w3.org/2000/svg"
   xmlns:sodipodi="http://sodipodi.sourceforge.net/DTD/sodipodi-0.dtd"
   xmlns:inkscape="http://www.inkscape.org/namespaces/inkscape"
   inkscape:version="1.0 (4035a4fb49, 2020-05-01)"
   height="187"
   width="256.8497"
   sodipodi:docname="CheckSpatialIndex.svg"
   id="svg30"
   clip-rule="evenodd"
   fill-rule="evenodd"
   y="0px"
   x="0px"
   viewBox="0 0 256.8497 187"
   style="image-rendering:optimizeQuality;shape-rendering:geometricPrecision;text-rendering:geometricPrecision"
   version="1.1"
   xml:space="preserve"><metadata
     id="metadata34"><rdf:RDF><cc:Work
         rdf:about=""><dc:format>image/svg+xml</dc:format><dc:type
           rdf:resource="http://purl.org/dc/dcmitype/StillImage" /><dc:title></dc:title></cc:Work></rdf:RDF></metadata><sodipodi:namedview
     inkscape:current-layer="svg30"
     inkscape:window-maximized="1"
     inkscape:window-y="-8"
     inkscape:window-x="-8"
     inkscape:cy="116.875"
     inkscape:cx="128.24144"
     inkscape:zoom="2.344385"
     fit-margin-bottom="0"
     fit-margin-right="0"
     fit-margin-left="0"
     fit-margin-top="0"
     showgrid="false"
     id="namedview32"
     inkscape:window-height="715"
     inkscape:window-width="1366"
     inkscape:pageshadow="2"
     inkscape:pageopacity="0"
     guidetolerance="10"
     gridtolerance="10"
     objecttolerance="10"
     borderopacity="1"
     bordercolor="#666666"
     pagecolor="#ffffff" /><defs
     id="defs4"><style
       id="style2"
       type="text/css">
   
    .fil0 {fill:black}
   
  </style></defs><g
     transform="translate(0.24143635)"
     id="g24"><path
       id="path6"
       d="m 256,126 c 2,20 -1,41 -8,61 l -29,-18 c 5,-14 6,-29 4,-43 z"
       class="fil0" /><path
       id="path8"
       d="m 234,61 c 11,16 17,34 20,52 h -33 c -3,-12 -8,-24 -15,-35 z"
       class="fil0" /><path
       id="path10"
       d="m 190,17 c 14,8 27,20 38,34 L 199,68 C 192,60 183,53 174,47 Z"
       class="fil0" /><path
       id="path12"
       d="m 134,0 c 16,1 31,5 46,11 l -17,31 c -9,-4 -19,-6 -29,-7 z"
       class="fil0" /><path
       id="path14"
       d="M 77,11 C 91,5 107,1 122,0 v 35 c -10,1 -19,3 -29,7 z"
       class="fil0" /><path
       id="path16"
       d="M 29,51 C 39,37 52,25 66,17 L 83,47 C 73,53 65,60 57,68 Z"
       class="fil0" /><path
       id="path18"
       d="M 2,113 C 5,95 12,77 22,61 l 28,17 c -7,11 -12,23 -15,35 z"
       class="fil0" /><path
       id="path20"
       d="M 8,187 C 1,167 -1,146 0,126 h 33 c -1,14 0,29 4,43 z"
       class="fil0" /><path
       id="path22"
       d="m 208,98 c -18,7 -80,25 -88,30 -9,5 -12,17 -7,25 5,9 16,12 25,7 9,-5 55,-49 70,-62 z m -70,41 c -8,-13 -27,-2 -19,11 7,12 26,1 19,-11 z"
       class="fil0" /></g></svg>
