<svg xmlns="http://www.w3.org/2000/svg" xmlns:xlink="http://www.w3.org/1999/xlink" version="1.1" x="0px" y="0px" viewBox="0 0 64 80" enable-background="new 0 0 64 64" xml:space="preserve"><path d="M34.677,53.049c0.392-0.574,0.782-1.259,1.162-2.092l-2.046-0.935c-0.984,2.154-2.104,3.39-3.07,3.39  c-1.49,0-3.317-2.862-4.594-7.945c1.496-0.276,3.031-0.435,4.594-0.435c0.406,0,0.81,0.01,1.211,0.028l0.103-2.248  c-0.435-0.02-0.874-0.03-1.313-0.03c-1.727,0-3.424,0.179-5.079,0.489c-0.602-3.078-1-6.788-1.062-11.035h28.413  c-0.057,1.136-0.198,2.266-0.425,3.37l2.205,0.451c0.331-1.617,0.498-3.282,0.498-4.946c0-13.538-11.013-24.551-24.551-24.551  S6.171,17.573,6.171,31.111c0,13.537,11.014,24.551,24.552,24.551c2.402,0,4.778-0.346,7.06-1.029l-0.646-2.156  C36.329,52.719,35.507,52.9,34.677,53.049z M26.791,53.059c-3.47-0.62-6.667-2.039-9.386-4.069c1.967-1.335,4.183-2.347,6.549-3.014  C24.673,48.871,25.622,51.338,26.791,53.059z M30.723,8.811c1.49,0,3.317,2.865,4.594,7.951c-1.492,0.274-3.027,0.429-4.594,0.429  c-1.563,0-3.098-0.158-4.594-0.435C27.405,11.673,29.232,8.811,30.723,8.811z M23.954,16.247c-2.367-0.667-4.582-1.678-6.549-3.013  c2.719-2.03,5.915-3.45,9.386-4.07C25.622,10.886,24.673,13.353,23.954,16.247z M34.653,9.164c3.475,0.621,6.675,2.043,9.396,4.076  c-1.968,1.34-4.188,2.347-6.558,3.014C36.773,13.355,35.823,10.887,34.653,9.164z M30.723,19.44c1.73,0,3.428-0.175,5.079-0.483  c0.601,3.078,0.999,6.785,1.061,11.029h-12.28c0.062-4.247,0.46-7.956,1.062-11.035C27.299,19.263,28.996,19.44,30.723,19.44z   M52.995,29.986H39.122c-0.062-3.973-0.45-7.979-1.146-11.531c2.861-0.79,5.521-2.047,7.854-3.729  C49.991,18.565,52.694,23.964,52.995,29.986z M15.62,14.721c2.329,1.678,4.99,2.935,7.85,3.726  c-0.696,3.554-1.086,7.563-1.147,11.54H8.449C8.75,23.962,11.455,18.561,15.62,14.721z M8.449,32.236h13.873  c0.062,3.977,0.451,7.986,1.147,11.54c-2.859,0.791-5.521,2.048-7.85,3.726C11.455,43.662,8.75,38.262,8.449,32.236z"/><path d="M57.829,55.849l-6.792-6.792c1.242-1.584,1.99-3.573,1.99-5.737c0-5.139-4.181-9.319-9.319-9.319s-9.319,4.181-9.319,9.319  s4.181,9.319,9.319,9.319c2.165,0,4.154-0.748,5.737-1.99l6.793,6.791L57.829,55.849z M36.639,43.319  c0-3.898,3.172-7.069,7.069-7.069c3.898,0,7.069,3.171,7.069,7.069c0,3.897-3.171,7.069-7.069,7.069  C39.811,50.389,36.639,47.217,36.639,43.319z"/></svg>